<svg width="218" height="15" viewBox="0 0 218 15" fill="none" xmlns="http://www.w3.org/2000/svg">
<path d="M2.5 5.90909C2.5 5.36553 2.63258 4.87003 2.89773 4.42259C3.16288 3.97514 3.51918 3.61884 3.96662 3.35369C4.41406 3.08854 4.90956 2.95597 5.45312 2.95597C5.92377 2.95597 6.35795 3.05705 6.75568 3.25923C7.15672 3.46141 7.48816 3.73816 7.75 4.08949C8.01184 4.4375 8.17424 4.83191 8.23722 5.27273H7.03409C6.9678 4.93134 6.78385 4.65294 6.48224 4.4375C6.18063 4.21875 5.83759 4.10938 5.45312 4.10938C5.12169 4.10938 4.82008 4.19058 4.5483 4.35298C4.27652 4.51539 4.05942 4.73248 3.89702 5.00426C3.73461 5.27604 3.65341 5.57765 3.65341 5.90909C3.65341 6.24053 3.73461 6.54214 3.89702 6.81392C4.05942 7.0857 4.27652 7.30279 4.5483 7.4652C4.82008 7.6276 5.12169 7.70881 5.45312 7.70881C5.83759 7.70881 6.16241 7.60109 6.42756 7.38565C6.69602 7.1669 6.86506 6.88684 6.93466 6.54545H8.13778C8.07481 6.98627 7.92069 7.38234 7.67543 7.73366C7.43016 8.08168 7.11529 8.35677 6.73082 8.55895C6.34967 8.76113 5.92377 8.86222 5.45312 8.86222C4.90956 8.86222 4.41406 8.72964 3.96662 8.46449C3.51918 8.19934 3.16288 7.84304 2.89773 7.3956C2.63258 6.94815 2.5 6.45265 2.5 5.90909ZM5.40341 11.1591C4.68087 11.1591 4.00142 11.0232 3.36506 10.7514C2.73201 10.4796 2.17353 10.1035 1.68963 9.62287C1.20904 9.13897 0.831203 8.58049 0.556108 7.94744C0.284328 7.31439 0.150095 6.63494 0.153409 5.90909C0.156723 5.18324 0.294271 4.50379 0.566051 3.87074C0.841146 3.23769 1.21899 2.68087 1.69957 2.20028C2.18016 1.71638 2.73698 1.33854 3.37003 1.06676C4.00308 0.794981 4.68087 0.659091 5.40341 0.659091C6.12926 0.659091 6.80871 0.794981 7.44176 1.06676C8.07813 1.33854 8.63494 1.71638 9.11222 2.20028C9.5928 2.68087 9.96899 3.23769 10.2408 3.87074C10.5125 4.50379 10.6501 5.18324 10.6534 5.90909C10.6567 6.63494 10.5225 7.31439 10.2507 7.94744C9.97893 8.58049 9.60275 9.13897 9.12216 9.62287C8.64157 10.1035 8.0831 10.4796 7.44673 10.7514C6.81037 11.0232 6.12926 11.1591 5.40341 11.1591ZM5.40341 10.0057C5.97017 10.0057 6.50213 9.89962 6.99929 9.6875C7.49645 9.47538 7.93229 9.18205 8.30682 8.80753C8.68134 8.433 8.97467 7.99882 9.18679 7.50497C9.39891 7.00781 9.50331 6.47751 9.5 5.91406C9.49669 5.3473 9.38897 4.81534 9.17685 4.31818C8.96473 3.82102 8.6714 3.38518 8.29688 3.01065C7.92235 2.63613 7.48816 2.3428 6.99432 2.13068C6.50047 1.91856 5.97017 1.8125 5.40341 1.8125C4.83996 1.8125 4.31132 1.91856 3.81747 2.13068C3.32363 2.3428 2.88944 2.63778 2.51491 3.01562C2.14039 3.39015 1.84541 3.82599 1.62997 4.32315C1.41785 4.817 1.31013 5.3473 1.30682 5.91406C1.3035 6.47419 1.40791 7.00284 1.62003 7.5C1.83215 7.99384 2.12547 8.42803 2.5 8.80256C2.87784 9.17708 3.31368 9.47206 3.80753 9.6875C4.30469 9.89962 4.83665 10.0057 5.40341 10.0057ZM12.8645 11V10.1051L16.2253 6.42614C16.6197 5.99526 16.9445 5.62074 17.1998 5.30256C17.455 4.98106 17.6439 4.67945 17.7665 4.39773C17.8925 4.11269 17.9554 3.81439 17.9554 3.50284C17.9554 3.14489 17.8693 2.83499 17.6969 2.57315C17.5279 2.31132 17.2959 2.10914 17.0009 1.96662C16.7059 1.8241 16.3745 1.75284 16.0066 1.75284C15.6155 1.75284 15.2741 1.83404 14.9824 1.99645C14.6941 2.15554 14.4703 2.37926 14.3113 2.66761C14.1555 2.95597 14.0776 3.29403 14.0776 3.68182H12.9043C12.9043 3.08523 13.0418 2.56155 13.3169 2.1108C13.592 1.66004 13.9666 1.30871 14.4405 1.05682C14.9178 0.804924 15.4531 0.678977 16.0463 0.678977C16.6429 0.678977 17.1716 0.804924 17.6323 1.05682C18.093 1.30871 18.4542 1.64844 18.7161 2.07599C18.9779 2.50355 19.1088 2.97917 19.1088 3.50284C19.1088 3.87737 19.0409 4.24361 18.905 4.60156C18.7724 4.9562 18.5404 5.35227 18.209 5.78977C17.8809 6.22396 17.4251 6.75426 16.8418 7.38068L14.5549 9.8267V9.90625H19.2878V11H12.8645ZM24.6621 11.1392C23.9131 11.1392 23.275 10.9354 22.748 10.5277C22.2211 10.1167 21.8184 9.52178 21.54 8.7429C21.2615 7.9607 21.1223 7.0161 21.1223 5.90909C21.1223 4.80871 21.2615 3.86908 21.54 3.0902C21.8217 2.308 22.226 1.71141 22.753 1.30043C23.2833 0.886126 23.9197 0.678977 24.6621 0.678977C25.4045 0.678977 26.0392 0.886126 26.5662 1.30043C27.0965 1.71141 27.5009 2.308 27.7793 3.0902C28.061 3.86908 28.2019 4.80871 28.2019 5.90909C28.2019 7.0161 28.0627 7.9607 27.7843 8.7429C27.5059 9.52178 27.1032 10.1167 26.5762 10.5277C26.0492 10.9354 25.4112 11.1392 24.6621 11.1392ZM24.6621 10.0455C25.4045 10.0455 25.9812 9.6875 26.3922 8.97159C26.8032 8.25568 27.0087 7.23485 27.0087 5.90909C27.0087 5.02746 26.9142 4.27675 26.7253 3.65696C26.5397 3.03717 26.2712 2.56487 25.9199 2.24006C25.5719 1.91525 25.1526 1.75284 24.6621 1.75284C23.9263 1.75284 23.3513 2.11577 22.937 2.84162C22.5227 3.56416 22.3155 4.58665 22.3155 5.90909C22.3155 6.79072 22.4083 7.53977 22.5939 8.15625C22.7795 8.77273 23.0463 9.24171 23.3944 9.56321C23.7457 9.88471 24.1683 10.0455 24.6621 10.0455ZM30.0911 11V10.1051L33.4519 6.42614C33.8463 5.99526 34.1711 5.62074 34.4263 5.30256C34.6815 4.98106 34.8704 4.67945 34.9931 4.39773C35.119 4.11269 35.182 3.81439 35.182 3.50284C35.182 3.14489 35.0958 2.83499 34.9235 2.57315C34.7544 2.31132 34.5224 2.10914 34.2275 1.96662C33.9325 1.8241 33.601 1.75284 33.2331 1.75284C32.842 1.75284 32.5007 1.83404 32.209 1.99645C31.9206 2.15554 31.6969 2.37926 31.5378 2.66761C31.382 2.95597 31.3042 3.29403 31.3042 3.68182H30.1309C30.1309 3.08523 30.2684 2.56155 30.5435 2.1108C30.8186 1.66004 31.1931 1.30871 31.6671 1.05682C32.1444 0.804924 32.6796 0.678977 33.2729 0.678977C33.8695 0.678977 34.3981 0.804924 34.8588 1.05682C35.3195 1.30871 35.6808 1.64844 35.9426 2.07599C36.2045 2.50355 36.3354 2.97917 36.3354 3.50284C36.3354 3.87737 36.2675 4.24361 36.1316 4.60156C35.999 4.9562 35.767 5.35227 35.4355 5.78977C35.1074 6.22396 34.6517 6.75426 34.0684 7.38068L31.7814 9.8267V9.90625H36.5144V11H30.0911ZM38.1103 8.91193V7.89773L42.5847 0.818182H43.3205V2.3892H42.8233L39.4426 7.73864V7.81818H45.4682V8.91193H38.1103ZM42.9029 11V8.60369V8.13139V0.818182H44.0762V11H42.9029ZM51.1097 11V10.1051L56.5984 1.91193H51.0501V0.818182H58.07V1.71307L52.5813 9.90625H58.1296V11H51.1097ZM60.0387 11V3.36364H61.212V11H60.0387ZM60.6353 2.09091C60.4066 2.09091 60.2094 2.01302 60.0437 1.85724C59.8813 1.70147 59.8001 1.5142 59.8001 1.29545C59.8001 1.0767 59.8813 0.889441 60.0437 0.733664C60.2094 0.577888 60.4066 0.5 60.6353 0.5C60.864 0.5 61.0595 0.577888 61.2219 0.733664C61.3877 0.889441 61.4705 1.0767 61.4705 1.29545C61.4705 1.5142 61.3877 1.70147 61.2219 1.85724C61.0595 2.01302 60.864 2.09091 60.6353 2.09091ZM64.5343 6.40625V11H63.361V3.36364H64.4945V4.55682H64.5939C64.7729 4.16903 65.0447 3.85748 65.4093 3.62216C65.7739 3.38352 66.2445 3.2642 66.8212 3.2642C67.3382 3.2642 67.7907 3.37027 68.1784 3.58239C68.5662 3.79119 68.8678 4.10938 69.0833 4.53693C69.2987 4.96117 69.4064 5.49811 69.4064 6.14773V11H68.2331V6.22727C68.2331 5.62737 68.0774 5.16004 67.7658 4.82528C67.4542 4.48722 67.0267 4.31818 66.4831 4.31818C66.1086 4.31818 65.7739 4.39938 65.4789 4.56179C65.1872 4.72419 64.9569 4.96117 64.7878 5.27273C64.6188 5.58428 64.5343 5.96212 64.5343 6.40625ZM74.6328 14.0227C74.0661 14.0227 73.5788 13.9498 73.1712 13.804C72.7635 13.6615 72.4238 13.4725 72.152 13.2372C71.8835 13.0052 71.6697 12.7566 71.5107 12.4915L72.4453 11.8352C72.5514 11.9744 72.6856 12.1335 72.848 12.3125C73.0104 12.4948 73.2325 12.6522 73.5142 12.7848C73.7992 12.9207 74.1721 12.9886 74.6328 12.9886C75.2493 12.9886 75.758 12.8395 76.1591 12.5412C76.5601 12.2429 76.7607 11.7756 76.7607 11.1392V9.58807H76.6612C76.575 9.72727 76.4524 9.89962 76.2933 10.1051C76.1375 10.3073 75.9122 10.4879 75.6172 10.647C75.3255 10.8028 74.9311 10.8807 74.4339 10.8807C73.8175 10.8807 73.264 10.7348 72.7734 10.4432C72.2862 10.1515 71.9001 9.72727 71.6151 9.17045C71.3333 8.61364 71.1925 7.9375 71.1925 7.14205C71.1925 6.35985 71.33 5.67874 71.6051 5.09872C71.8802 4.51539 72.263 4.06463 72.7536 3.74645C73.2441 3.42495 73.8108 3.2642 74.4538 3.2642C74.951 3.2642 75.3454 3.34706 75.6371 3.51278C75.9321 3.67519 76.1574 3.8608 76.3132 4.0696C76.4723 4.27509 76.5949 4.44413 76.6811 4.5767H76.8004V3.36364H77.9339V11.2188C77.9339 11.875 77.7848 12.4086 77.4865 12.8196C77.1915 13.2339 76.7938 13.5372 76.2933 13.7294C75.7962 13.925 75.2427 14.0227 74.6328 14.0227ZM74.593 9.8267C75.0637 9.8267 75.4614 9.71899 75.7862 9.50355C76.111 9.28812 76.358 8.97822 76.527 8.57386C76.696 8.16951 76.7805 7.68561 76.7805 7.12216C76.7805 6.57197 76.6977 6.08641 76.532 5.66548C76.3662 5.24455 76.121 4.91477 75.7962 4.67614C75.4714 4.4375 75.0703 4.31818 74.593 4.31818C74.0959 4.31818 73.6816 4.44413 73.3501 4.69602C73.022 4.94792 72.7751 5.28598 72.6094 5.71023C72.447 6.13447 72.3658 6.60511 72.3658 7.12216C72.3658 7.65246 72.4486 8.12145 72.6143 8.52912C72.7834 8.93348 73.032 9.25166 73.3601 9.48366C73.6915 9.71236 74.1025 9.8267 74.593 9.8267ZM83.2834 11.1591C82.5476 11.1591 81.9129 10.9967 81.3793 10.6719C80.849 10.3438 80.4396 9.88636 80.1513 9.29972C79.8662 8.70975 79.7237 8.02367 79.7237 7.24148C79.7237 6.45928 79.8662 5.76989 80.1513 5.1733C80.4396 4.57339 80.8407 4.10606 81.3544 3.77131C81.8714 3.43324 82.4747 3.2642 83.1641 3.2642C83.5618 3.2642 83.9545 3.33049 84.3423 3.46307C84.7301 3.59564 85.0831 3.81108 85.4013 4.10938C85.7195 4.40436 85.973 4.79545 86.1619 5.28267C86.3509 5.76989 86.4453 6.36979 86.4453 7.08239V7.57955H80.5589V6.56534H85.2521C85.2521 6.13447 85.166 5.75 84.9936 5.41193C84.8246 5.07386 84.5826 4.80705 84.2678 4.61151C83.9562 4.41596 83.5883 4.31818 83.1641 4.31818C82.6967 4.31818 82.2924 4.43419 81.951 4.66619C81.6129 4.89489 81.3527 5.19318 81.1705 5.56108C80.9882 5.92898 80.897 6.32339 80.897 6.74432V7.42045C80.897 7.99716 80.9964 8.48603 81.1953 8.88707C81.3975 9.2848 81.6776 9.58807 82.0355 9.79688C82.3935 10.0024 82.8094 10.1051 83.2834 10.1051C83.5916 10.1051 83.87 10.062 84.1186 9.97585C84.3705 9.88636 84.5876 9.75379 84.7699 9.57812C84.9522 9.39915 85.093 9.17708 85.1925 8.91193L86.326 9.23011C86.2067 9.61458 86.0062 9.95265 85.7244 10.2443C85.4427 10.5327 85.0947 10.758 84.6804 10.9205C84.2661 11.0795 83.8004 11.1591 83.2834 11.1591ZM89.4034 6.40625V11H88.2301V3.36364H89.3636V4.55682H89.4631C89.642 4.16903 89.9138 3.85748 90.2784 3.62216C90.643 3.38352 91.1136 3.2642 91.6903 3.2642C92.2074 3.2642 92.6598 3.37027 93.0476 3.58239C93.4354 3.79119 93.737 4.10938 93.9524 4.53693C94.1679 4.96117 94.2756 5.49811 94.2756 6.14773V11H93.1023V6.22727C93.1023 5.62737 92.9465 5.16004 92.6349 4.82528C92.3234 4.48722 91.8958 4.31818 91.3523 4.31818C90.9777 4.31818 90.643 4.39938 90.348 4.56179C90.0563 4.72419 89.826 4.96117 89.657 5.27273C89.4879 5.58428 89.4034 5.96212 89.4034 6.40625ZM99.9593 1.91193V0.818182H107.596V1.91193H104.394V11H103.161V1.91193H99.9593ZM111.434 11.1591C110.698 11.1591 110.063 10.9967 109.53 10.6719C108.999 10.3438 108.59 9.88636 108.302 9.29972C108.017 8.70975 107.874 8.02367 107.874 7.24148C107.874 6.45928 108.017 5.76989 108.302 5.1733C108.59 4.57339 108.991 4.10606 109.505 3.77131C110.022 3.43324 110.625 3.2642 111.314 3.2642C111.712 3.2642 112.105 3.33049 112.493 3.46307C112.881 3.59564 113.233 3.81108 113.552 4.10938C113.87 4.40436 114.123 4.79545 114.312 5.28267C114.501 5.76989 114.596 6.36979 114.596 7.08239V7.57955H108.709V6.56534H113.403C113.403 6.13447 113.316 5.75 113.144 5.41193C112.975 5.07386 112.733 4.80705 112.418 4.61151C112.107 4.41596 111.739 4.31818 111.314 4.31818C110.847 4.31818 110.443 4.43419 110.101 4.66619C109.763 4.89489 109.503 5.19318 109.321 5.56108C109.139 5.92898 109.047 6.32339 109.047 6.74432V7.42045C109.047 7.99716 109.147 8.48603 109.346 8.88707C109.548 9.2848 109.828 9.58807 110.186 9.79688C110.544 10.0024 110.96 10.1051 111.434 10.1051C111.742 10.1051 112.02 10.062 112.269 9.97585C112.521 9.88636 112.738 9.75379 112.92 9.57812C113.103 9.39915 113.243 9.17708 113.343 8.91193L114.476 9.23011C114.357 9.61458 114.157 9.95265 113.875 10.2443C113.593 10.5327 113.245 10.758 112.831 10.9205C112.416 11.0795 111.951 11.1591 111.434 11.1591ZM119.483 11.1591C118.767 11.1591 118.15 10.9901 117.633 10.652C117.116 10.3139 116.719 9.84825 116.44 9.25497C116.162 8.66169 116.023 7.9839 116.023 7.22159C116.023 6.44602 116.165 5.7616 116.45 5.16832C116.738 4.57173 117.14 4.10606 117.653 3.77131C118.17 3.43324 118.773 3.2642 119.463 3.2642C120 3.2642 120.484 3.36364 120.915 3.5625C121.345 3.76136 121.698 4.03977 121.974 4.39773C122.249 4.75568 122.419 5.1733 122.486 5.65057H121.312C121.223 5.30256 121.024 4.99432 120.716 4.72585C120.411 4.45407 120 4.31818 119.483 4.31818C119.025 4.31818 118.624 4.4375 118.28 4.67614C117.938 4.91146 117.671 5.24455 117.479 5.67543C117.29 6.10298 117.196 6.60511 117.196 7.18182C117.196 7.77178 117.289 8.28551 117.474 8.72301C117.663 9.16051 117.928 9.50024 118.27 9.74219C118.614 9.98414 119.019 10.1051 119.483 10.1051C119.788 10.1051 120.064 10.0521 120.313 9.94602C120.562 9.83996 120.772 9.6875 120.944 9.48864C121.117 9.28977 121.239 9.05114 121.312 8.77273H122.486C122.419 9.22348 122.255 9.6295 121.993 9.99077C121.735 10.3487 121.392 10.6338 120.964 10.8459C120.54 11.0547 120.046 11.1591 119.483 11.1591ZM125.374 6.40625V11H124.201V0.818182H125.374V4.55682H125.474C125.653 4.16241 125.921 3.84919 126.279 3.61719C126.64 3.38187 127.121 3.2642 127.721 3.2642C128.241 3.2642 128.697 3.36861 129.088 3.57741C129.479 3.78291 129.782 4.09943 129.998 4.52699C130.216 4.95123 130.326 5.49148 130.326 6.14773V11H129.153V6.22727C129.153 5.62074 128.995 5.15175 128.68 4.82031C128.369 4.48556 127.936 4.31818 127.383 4.31818C126.998 4.31818 126.653 4.39938 126.349 4.56179C126.047 4.72419 125.808 4.96117 125.633 5.27273C125.46 5.58428 125.374 5.96212 125.374 6.40625ZM133.646 6.40625V11H132.472V3.36364H133.606V4.55682H133.705C133.884 4.16903 134.156 3.85748 134.521 3.62216C134.885 3.38352 135.356 3.2642 135.933 3.2642C136.45 3.2642 136.902 3.37027 137.29 3.58239C137.678 3.79119 137.979 4.10938 138.195 4.53693C138.41 4.96117 138.518 5.49811 138.518 6.14773V11H137.344V6.22727C137.344 5.62737 137.189 5.16004 136.877 4.82528C136.566 4.48722 136.138 4.31818 135.594 4.31818C135.22 4.31818 134.885 4.39938 134.59 4.56179C134.299 4.72419 134.068 4.96117 133.899 5.27273C133.73 5.58428 133.646 5.96212 133.646 6.40625ZM143.764 11.1591C143.075 11.1591 142.47 10.995 141.949 10.6669C141.432 10.3388 141.028 9.87973 140.736 9.28977C140.448 8.69981 140.304 8.01042 140.304 7.22159C140.304 6.42614 140.448 5.73177 140.736 5.13849C141.028 4.54522 141.432 4.08452 141.949 3.75639C142.47 3.42827 143.075 3.2642 143.764 3.2642C144.453 3.2642 145.057 3.42827 145.574 3.75639C146.094 4.08452 146.498 4.54522 146.787 5.13849C147.078 5.73177 147.224 6.42614 147.224 7.22159C147.224 8.01042 147.078 8.69981 146.787 9.28977C146.498 9.87973 146.094 10.3388 145.574 10.6669C145.057 10.995 144.453 11.1591 143.764 11.1591ZM143.764 10.1051C144.288 10.1051 144.719 9.97088 145.057 9.70241C145.395 9.43395 145.645 9.08097 145.807 8.64347C145.97 8.20597 146.051 7.73201 146.051 7.22159C146.051 6.71117 145.97 6.23556 145.807 5.79474C145.645 5.35393 145.395 4.99763 145.057 4.72585C144.719 4.45407 144.288 4.31818 143.764 4.31818C143.24 4.31818 142.809 4.45407 142.471 4.72585C142.133 4.99763 141.883 5.35393 141.721 5.79474C141.558 6.23556 141.477 6.71117 141.477 7.22159C141.477 7.73201 141.558 8.20597 141.721 8.64347C141.883 9.08097 142.133 9.43395 142.471 9.70241C142.809 9.97088 143.24 10.1051 143.764 10.1051ZM150.189 0.818182V11H149.015V0.818182H150.189ZM155.44 11.1591C154.75 11.1591 154.146 10.995 153.625 10.6669C153.108 10.3388 152.704 9.87973 152.412 9.28977C152.124 8.69981 151.98 8.01042 151.98 7.22159C151.98 6.42614 152.124 5.73177 152.412 5.13849C152.704 4.54522 153.108 4.08452 153.625 3.75639C154.146 3.42827 154.75 3.2642 155.44 3.2642C156.129 3.2642 156.732 3.42827 157.249 3.75639C157.77 4.08452 158.174 4.54522 158.463 5.13849C158.754 5.73177 158.9 6.42614 158.9 7.22159C158.9 8.01042 158.754 8.69981 158.463 9.28977C158.174 9.87973 157.77 10.3388 157.249 10.6669C156.732 10.995 156.129 11.1591 155.44 11.1591ZM155.44 10.1051C155.963 10.1051 156.394 9.97088 156.732 9.70241C157.07 9.43395 157.321 9.08097 157.483 8.64347C157.646 8.20597 157.727 7.73201 157.727 7.22159C157.727 6.71117 157.646 6.23556 157.483 5.79474C157.321 5.35393 157.07 4.99763 156.732 4.72585C156.394 4.45407 155.963 4.31818 155.44 4.31818C154.916 4.31818 154.485 4.45407 154.147 4.72585C153.809 4.99763 153.559 5.35393 153.396 5.79474C153.234 6.23556 153.153 6.71117 153.153 7.22159C153.153 7.73201 153.234 8.20597 153.396 8.64347C153.559 9.08097 153.809 9.43395 154.147 9.70241C154.485 9.97088 154.916 10.1051 155.44 10.1051ZM163.773 14.0227C163.207 14.0227 162.719 13.9498 162.312 13.804C161.904 13.6615 161.564 13.4725 161.293 13.2372C161.024 13.0052 160.81 12.7566 160.651 12.4915L161.586 11.8352C161.692 11.9744 161.826 12.1335 161.989 12.3125C162.151 12.4948 162.373 12.6522 162.655 12.7848C162.94 12.9207 163.313 12.9886 163.773 12.9886C164.39 12.9886 164.899 12.8395 165.3 12.5412C165.701 12.2429 165.901 11.7756 165.901 11.1392V9.58807H165.802C165.716 9.72727 165.593 9.89962 165.434 10.1051C165.278 10.3073 165.053 10.4879 164.758 10.647C164.466 10.8028 164.072 10.8807 163.575 10.8807C162.958 10.8807 162.405 10.7348 161.914 10.4432C161.427 10.1515 161.041 9.72727 160.756 9.17045C160.474 8.61364 160.333 7.9375 160.333 7.14205C160.333 6.35985 160.471 5.67874 160.746 5.09872C161.021 4.51539 161.404 4.06463 161.894 3.74645C162.385 3.42495 162.951 3.2642 163.594 3.2642C164.092 3.2642 164.486 3.34706 164.778 3.51278C165.073 3.67519 165.298 3.8608 165.454 4.0696C165.613 4.27509 165.736 4.44413 165.822 4.5767H165.941V3.36364H167.075V11.2188C167.075 11.875 166.925 12.4086 166.627 12.8196C166.332 13.2339 165.934 13.5372 165.434 13.7294C164.937 13.925 164.383 14.0227 163.773 14.0227ZM163.734 9.8267C164.204 9.8267 164.602 9.71899 164.927 9.50355C165.252 9.28812 165.499 8.97822 165.668 8.57386C165.837 8.16951 165.921 7.68561 165.921 7.12216C165.921 6.57197 165.838 6.08641 165.673 5.66548C165.507 5.24455 165.262 4.91477 164.937 4.67614C164.612 4.4375 164.211 4.31818 163.734 4.31818C163.237 4.31818 162.822 4.44413 162.491 4.69602C162.163 4.94792 161.916 5.28598 161.75 5.71023C161.588 6.13447 161.506 6.60511 161.506 7.12216C161.506 7.65246 161.589 8.12145 161.755 8.52912C161.924 8.93348 162.173 9.25166 162.501 9.48366C162.832 9.71236 163.243 9.8267 163.734 9.8267ZM169.222 11V3.36364H170.396V11H169.222ZM169.819 2.09091C169.59 2.09091 169.393 2.01302 169.227 1.85724C169.065 1.70147 168.984 1.5142 168.984 1.29545C168.984 1.0767 169.065 0.889441 169.227 0.733664C169.393 0.577888 169.59 0.5 169.819 0.5C170.048 0.5 170.243 0.577888 170.406 0.733664C170.571 0.889441 170.654 1.0767 170.654 1.29545C170.654 1.5142 170.571 1.70147 170.406 1.85724C170.243 2.01302 170.048 2.09091 169.819 2.09091ZM175.746 11.1591C175.01 11.1591 174.376 10.9967 173.842 10.6719C173.312 10.3438 172.903 9.88636 172.614 9.29972C172.329 8.70975 172.187 8.02367 172.187 7.24148C172.187 6.45928 172.329 5.76989 172.614 5.1733C172.903 4.57339 173.304 4.10606 173.817 3.77131C174.334 3.43324 174.938 3.2642 175.627 3.2642C176.025 3.2642 176.417 3.33049 176.805 3.46307C177.193 3.59564 177.546 3.81108 177.864 4.10938C178.182 4.40436 178.436 4.79545 178.625 5.28267C178.814 5.76989 178.908 6.36979 178.908 7.08239V7.57955H173.022V6.56534H177.715C177.715 6.13447 177.629 5.75 177.456 5.41193C177.287 5.07386 177.046 4.80705 176.731 4.61151C176.419 4.41596 176.051 4.31818 175.627 4.31818C175.16 4.31818 174.755 4.43419 174.414 4.66619C174.076 4.89489 173.816 5.19318 173.633 5.56108C173.451 5.92898 173.36 6.32339 173.36 6.74432V7.42045C173.36 7.99716 173.459 8.48603 173.658 8.88707C173.86 9.2848 174.14 9.58807 174.498 9.79688C174.856 10.0024 175.272 10.1051 175.746 10.1051C176.055 10.1051 176.333 10.062 176.581 9.97585C176.833 9.88636 177.05 9.75379 177.233 9.57812C177.415 9.39915 177.556 9.17708 177.655 8.91193L178.789 9.23011C178.67 9.61458 178.469 9.95265 178.187 10.2443C177.906 10.5327 177.558 10.758 177.143 10.9205C176.729 11.0795 176.263 11.1591 175.746 11.1591ZM186.102 5.07386L185.048 5.37216C184.982 5.1965 184.884 5.0258 184.755 4.86009C184.629 4.69105 184.456 4.55185 184.238 4.44247C184.019 4.3331 183.739 4.27841 183.398 4.27841C182.93 4.27841 182.541 4.38613 182.229 4.60156C181.921 4.81368 181.767 5.08381 181.767 5.41193C181.767 5.7036 181.873 5.93395 182.085 6.10298C182.297 6.27202 182.629 6.41288 183.079 6.52557L184.213 6.80398C184.896 6.9697 185.404 7.22325 185.739 7.56463C186.074 7.9027 186.241 8.33854 186.241 8.87216C186.241 9.30966 186.115 9.70076 185.863 10.0455C185.615 10.3902 185.267 10.6619 184.819 10.8608C184.372 11.0597 183.852 11.1591 183.258 11.1591C182.479 11.1591 181.835 10.9901 181.324 10.652C180.814 10.3139 180.491 9.82008 180.355 9.17045L181.469 8.89205C181.575 9.30303 181.775 9.61127 182.07 9.81676C182.368 10.0223 182.758 10.125 183.238 10.125C183.785 10.125 184.22 10.009 184.541 9.77699C184.866 9.54167 185.028 9.25994 185.028 8.93182C185.028 8.66667 184.935 8.4446 184.75 8.26562C184.564 8.08333 184.279 7.94744 183.895 7.85795L182.622 7.55966C181.923 7.39394 181.409 7.13707 181.081 6.78906C180.756 6.43774 180.594 5.99858 180.594 5.47159C180.594 5.04072 180.715 4.65956 180.956 4.32812C181.202 3.99669 181.535 3.73651 181.956 3.54758C182.38 3.35866 182.861 3.2642 183.398 3.2642C184.153 3.2642 184.747 3.42992 185.177 3.76136C185.612 4.0928 185.92 4.5303 186.102 5.07386ZM189.757 9.60795L189.678 10.1449C189.622 10.5227 189.535 10.9271 189.419 11.358C189.307 11.7888 189.189 12.1948 189.066 12.576C188.944 12.9571 188.843 13.2604 188.763 13.4858H187.868C187.911 13.2737 187.968 12.9936 188.037 12.6456C188.107 12.2976 188.176 11.9081 188.246 11.4773C188.319 11.0497 188.379 10.6122 188.425 10.1648L188.485 9.60795H189.757ZM197.261 0.818182V11H196.028V0.818182H197.261ZM200.747 6.40625V11H199.574V3.36364H200.707V4.55682H200.807C200.986 4.16903 201.258 3.85748 201.622 3.62216C201.987 3.38352 202.457 3.2642 203.034 3.2642C203.551 3.2642 204.004 3.37027 204.391 3.58239C204.779 3.79119 205.081 4.10938 205.296 4.53693C205.512 4.96117 205.619 5.49811 205.619 6.14773V11H204.446V6.22727C204.446 5.62737 204.29 5.16004 203.979 4.82528C203.667 4.48722 203.24 4.31818 202.696 4.31818C202.321 4.31818 201.987 4.39938 201.692 4.56179C201.4 4.72419 201.17 4.96117 201.001 5.27273C200.832 5.58428 200.747 5.96212 200.747 6.40625ZM210.866 11.1591C210.15 11.1591 209.533 10.9901 209.016 10.652C208.499 10.3139 208.101 9.84825 207.823 9.25497C207.545 8.66169 207.405 7.9839 207.405 7.22159C207.405 6.44602 207.548 5.7616 207.833 5.16832C208.121 4.57173 208.522 4.10606 209.036 3.77131C209.553 3.43324 210.156 3.2642 210.846 3.2642C211.383 3.2642 211.867 3.36364 212.297 3.5625C212.728 3.76136 213.081 4.03977 213.356 4.39773C213.631 4.75568 213.802 5.1733 213.868 5.65057H212.695C212.606 5.30256 212.407 4.99432 212.099 4.72585C211.794 4.45407 211.383 4.31818 210.866 4.31818C210.408 4.31818 210.007 4.4375 209.662 4.67614C209.321 4.91146 209.054 5.24455 208.862 5.67543C208.673 6.10298 208.579 6.60511 208.579 7.18182C208.579 7.77178 208.671 8.28551 208.857 8.72301C209.046 9.16051 209.311 9.50024 209.653 9.74219C209.997 9.98414 210.402 10.1051 210.866 10.1051C211.171 10.1051 211.447 10.0521 211.696 9.94602C211.944 9.83996 212.155 9.6875 212.327 9.48864C212.5 9.28977 212.622 9.05114 212.695 8.77273H213.868C213.802 9.22348 213.638 9.6295 213.376 9.99077C213.118 10.3487 212.775 10.6338 212.347 10.8459C211.923 11.0547 211.429 11.1591 210.866 11.1591ZM216.439 11.0795C216.193 11.0795 215.983 10.9917 215.807 10.8161C215.632 10.6404 215.544 10.4299 215.544 10.1847C215.544 9.93939 215.632 9.72893 215.807 9.55327C215.983 9.3776 216.193 9.28977 216.439 9.28977C216.684 9.28977 216.894 9.3776 217.07 9.55327C217.246 9.72893 217.334 9.93939 217.334 10.1847C217.334 10.3471 217.292 10.4962 217.209 10.6321C217.13 10.768 217.022 10.8774 216.886 10.9602C216.754 11.0398 216.604 11.0795 216.439 11.0795Z" fill="#A1A1AA"/>
</svg>
